PathFileType	4	(X/Y/Z)	C:\Users\Graham\Documents\MATLAB\MOtoNMS_v2_2\MyData\ElaboratedData\S8\22-05-17\staticElaborations\Static1\Static1\\Static1.trc
DataRate	CameraRate	NumFrames	NumMarkers	Units	OrigDataRate	DataStartFrame
100	100	7	38	mm	100	2
Frame#	Time	V_Sacral			R_ASIS			L_ASIS			R_Knee_Lat			R_Knee_Med			R_Thigh_Upper			R_Thigh_Front			R_Thigh_Rear			L_Knee_Lat			L_Knee_Med			L_Thigh_Upper			L_Thigh_Front			L_Thigh_Rear			R_Ankle_Lat			R_Ankle_Med			R_Shank_Upper			R_Shank_Front			R_Shank_Rear			L_Ankle_Lat			L_Ankle_Med			L_Shank_Upper			L_Shank_Front			L_Shank_Rear			R_Heel			R_MTP1			R_MTP5			L_Heel			L_MTP1			L_MTP5			Clavicle			R_Acromium			L_Acromium			LAJC			RAJC			LHJC			RHJC			LKJC			RKJC		
		X1	Y1	Z1	X2	Y2	Z2	X3	Y3	Z3	X4	Y4	Z4	X5	Y5	Z5	X6	Y6	Z6	X7	Y7	Z7	X8	Y8	Z8	X9	Y9	Z9	X10	Y10	Z10	X11	Y11	Z11	X12	Y12	Z12	X13	Y13	Z13	X14	Y14	Z14	X15	Y15	Z15	X16	Y16	Z16	X17	Y17	Z17	X18	Y18	Z18	X19	Y19	Z19	X20	Y20	Z20	X21	Y21	Z21	X22	Y22	Z22	X23	Y23	Z23	X24	Y24	Z24	X25	Y25	Z25	X26	Y26	Z26	X27	Y27	Z27	X28	Y28	Z28	X29	Y29	Z29	X30	Y30	Z30	X31	Y31	Z31	X32	Y32	Z32	X33	Y33	Z33	X34	Y34	Z34	X35	Y35	Z35	X36	Y36	Z36	X37	Y37	Z37	X38	Y38	Z38	

29	0.280000	-246.171087	1017.760356	-10.344449	-46.694998	992.823049	136.318322	-22.974106	993.369945	-94.103929	-130.337214	526.116592	178.052407	-145.291818	528.632531	41.691652	-13.715529	817.994885	138.940390	-28.458277	704.023931	90.188477	-47.581009	703.065329	161.128884	-109.062199	537.216682	-142.956212	-146.196866	530.668560	-8.666963	4.520271	811.025675	-62.093062	-19.995631	689.019467	-36.796453	-15.204005	696.242207	-112.166905	-183.071546	92.259125	142.051334	-171.255890	100.646077	66.299667	-111.612891	333.008820	130.338685	-145.788097	225.539660	84.874121	-140.666827	218.888593	157.561604	-177.679222	88.403454	-113.436050	-164.506298	99.718405	-36.229043	-109.166615	327.511018	-96.639892	-140.861214	220.786187	-53.441410	-127.581486	210.662130	-126.291976	-241.164285	51.482739	95.718073	-28.217399	63.859949	82.317019	-47.248697	51.562930	158.311063	-238.597625	57.769210	-74.785467	-26.725193	66.284184	-59.940111	-42.847275	52.380227	-135.033346	-73.830089	1389.341093	23.290802	-161.722293	1437.047219	176.571481	-143.399594	1448.849653	-158.766862	-171.092760	94.060930	-74.832546	-177.163718	96.452601	104.175500	-96.205289	920.487845	-69.567183	-113.356174	920.092423	97.034708	-127.629532	533.942621	-75.811587	-137.814516	527.374562	109.872029	
30	0.290000	-246.190209	1017.766555	-10.365888	-46.702527	992.822691	136.282023	-22.992549	993.370104	-94.135832	-130.342546	526.121331	178.033172	-145.293903	528.631724	41.669597	-13.735620	817.996951	138.908079	-28.468282	704.026760	90.163833	-47.590592	703.071473	161.104042	-109.074146	537.217302	-142.977100	-146.207771	530.669529	-8.684011	4.520030	811.048997	-62.153291	-20.000936	689.015813	-36.831301	-15.220017	696.246487	-112.195528	-183.072454	92.261184	142.049904	-171.254616	100.645845	66.297040	-111.616235	333.009113	130.321331	-145.790110	225.537932	84.866003	-140.668581	218.891786	157.554697	-177.680539	88.402789	-113.437413	-164.506781	99.719029	-36.230725	-109.173968	327.511721	-96.652326	-140.863531	220.788331	-53.448308	-127.591444	210.656047	-126.285395	-241.165953	51.482626	95.716263	-28.217299	63.860172	82.317535	-47.249281	51.563632	158.310083	-238.774007	57.828979	-74.793937	-26.725149	66.286154	-59.940598	-42.848709	52.379181	-135.034356	-73.800290	1389.344386	23.266180	-161.679803	1437.032527	176.552734	-143.376939	1448.854436	-158.786655	-171.093660	94.060909	-74.834069	-177.163535	96.453514	104.173472	-96.225427	920.491583	-69.597181	-113.368456	920.095787	97.001876	-127.640958	533.943416	-75.830556	-137.818225	527.376528	109.851384	
31	0.300000	-246.208101	1017.773147	-10.388135	-46.709851	992.822605	136.245057	-23.010142	993.370387	-94.167537	-130.343129	526.126404	178.012412	-145.297479	528.631487	41.645681	-13.754206	817.998887	138.873783	-28.477187	704.030288	90.135990	-47.599706	703.076419	161.075468	-109.086166	537.217767	-142.999210	-146.218780	530.670778	-8.701627	4.518065	811.070059	-62.212125	-20.007186	689.011290	-36.866210	-15.235572	696.250565	-112.224068	-183.072435	92.263591	142.048210	-171.253572	100.645526	66.293938	-111.618117	333.009369	130.301677	-145.792190	225.535759	84.856302	-140.668324	218.894385	157.546337	-177.682214	88.402209	-113.438860	-164.506878	99.720091	-36.232558	-109.181750	327.512201	-96.665675	-140.865419	220.791336	-53.455891	-127.601854	210.651067	-126.280732	-241.166957	51.482437	95.714594	-28.216840	63.860595	82.318211	-47.249410	51.564925	158.309345	-238.863936	57.857240	-74.795873	-26.724754	66.287852	-59.941061	-42.850235	52.378497	-135.035289	-73.768871	1389.348830	23.240767	-161.633369	1437.030559	176.530788	-143.352912	1448.858240	-158.807742	-171.094546	94.061150	-74.835709	-177.163003	96.454558	104.171074	-96.244710	920.495774	-69.627291	-113.380354	920.099710	96.968356	-127.652473	533.944273	-75.850419	-137.820304	527.378945	109.829046	
32	0.310000	-246.224578	1017.780148	-10.411282	-46.716592	992.822655	136.207889	-23.026607	993.370638	-94.198692	-130.339674	526.131698	177.990311	-145.302703	528.631711	41.620306	-13.770857	818.000409	138.837681	-28.485017	704.034271	90.104848	-47.608852	703.079638	161.042690	-109.098607	537.217935	-143.022333	-146.230449	530.672280	-8.719734	4.513623	811.088382	-62.269020	-20.014829	689.006328	-36.900896	-15.251133	696.254101	-112.252223	-183.071696	92.266153	142.046167	-171.253012	100.645080	66.290324	-111.619014	333.009775	130.280512	-145.794512	225.533178	84.845216	-140.666714	218.896456	157.536713	-177.684062	88.401753	-113.440422	-164.506740	99.721427	-36.234541	-109.190105	327.512359	-96.679586	-140.867396	220.794921	-53.464120	-127.612565	210.647254	-126.278065	-241.167244	51.482129	95.713064	-28.216145	63.861247	82.318906	-47.249224	51.566763	158.308842	-238.883396	57.859932	-74.792811	-26.724176	66.289289	-59.941477	-42.851849	52.378278	-135.036151	-73.735569	1389.354118	23.214711	-161.584128	1437.038739	176.506054	-143.327270	1448.860670	-158.830073	-171.095401	94.061590	-74.837481	-177.162354	96.455616	104.168246	-96.262953	920.500288	-69.657115	-113.391612	920.104078	96.934622	-127.664528	533.945107	-75.871033	-137.821189	527.381704	109.805309	
33	0.320000	-246.239555	1017.787521	-10.435345	-46.722312	992.822714	136.170939	-23.041688	993.370675	-94.229152	-130.333072	526.137075	177.967121	-145.309498	528.632215	41.593961	-13.785250	818.001332	138.800074	-28.491805	704.038441	90.070607	-47.618553	703.080766	161.005493	-109.111755	537.217704	-143.046276	-146.243312	530.673984	-8.738316	4.506542	811.103958	-62.323686	-20.024107	689.001336	-36.935164	-15.267078	696.256757	-112.279774	-183.070485	92.268653	142.043723	-171.253183	100.644479	66.286216	-111.619393	333.010474	130.258709	-145.797184	225.530254	84.833021	-140.664334	218.898119	157.526101	-177.685890	88.401407	-113.442114	-164.506601	99.722854	-36.236660	-109.199172	327.512128	-96.693688	-140.869977	220.798766	-53.472900	-127.623406	210.644529	-126.277354	-241.166878	51.481684	95.711649	-28.215396	63.862121	82.319480	-47.248892	51.569030	158.308556	-238.852587	57.844560	-74.786645	-26.723609	66.290505	-59.941843	-42.853516	52.378576	-135.036940	-73.700063	1389.359888	23.188152	-161.533207	1437.053875	176.479060	-143.299731	1448.861441	-158.853606	-171.096245	94.062131	-74.839387	-177.161834	96.456566	104.164970	-96.279998	920.504909	-69.686391	-113.401936	920.108714	96.901118	-127.677534	533.945844	-75.892296	-137.821285	527.384645	109.780541	
34	0.330000	-246.253046	1017.795171	-10.460235	-46.726601	992.822662	136.134539	-23.055176	993.370304	-94.258971	-130.324292	526.142380	177.943157	-145.317551	528.632772	41.567192	-13.797211	818.001625	138.761404	-28.497593	704.042532	90.033791	-47.629181	703.079707	160.964093	-109.125809	537.217017	-143.070897	-146.257827	530.675818	-8.757433	4.497105	811.117112	-62.376041	-20.035046	688.996611	-36.968896	-15.283664	696.258241	-112.306609	-183.069033	92.270877	142.040879	-171.254295	100.643711	66.281696	-111.619652	333.011547	130.237123	-145.800237	225.527068	84.820061	-140.661622	218.899533	157.514840	-177.687542	88.401098	-113.443940	-164.506731	99.724194	-36.238875	-109.209091	327.511488	-96.707659	-140.873610	220.802550	-53.482090	-127.634205	210.642698	-126.278495	-241.166014	51.481101	95.710333	-28.214792	63.863173	82.319819	-47.248574	51.571558	158.308459	-238.792434	57.818910	-74.779291	-26.723248	66.291556	-59.942167	-42.855169	52.379375	-135.037638	-73.662049	1389.365770	23.161223	-161.481564	1437.072663	176.450386	-143.269986	1448.860424	-158.878305	-171.097136	94.062646	-74.841408	-177.161664	96.457294	104.161287	-96.295719	920.509364	-69.715024	-113.411055	920.113398	96.868196	-127.691818	533.946417	-75.914165	-137.820921	527.387576	109.755174	
35	0.340000	-246.265142	1017.802954	-10.485752	-46.729167	992.822385	136.098904	-23.066931	993.369335	-94.288366	-130.314286	526.147457	177.918786	-145.326350	528.633153	41.540554	-13.806734	818.001411	138.722245	-28.502451	704.046310	89.995226	-47.640754	703.076716	160.919269	-109.140866	537.215847	-143.096124	-146.274322	530.677684	-8.777206	4.485871	811.128343	-62.426140	-20.047481	688.992296	-37.002052	-15.301001	696.258352	-112.332731	-183.067510	92.272640	142.037694	-171.256496	100.642778	66.276900	-111.620081	333.013011	130.216490	-145.803627	225.523707	84.806722	-140.658855	218.900863	157.503298	-177.688935	88.400702	-113.445877	-164.507383	99.725297	-36.241132	-109.220000	327.510483	-96.721285	-140.878622	220.805990	-53.491532	-127.644807	210.641495	-126.281348	-241.164864	51.480394	95.709120	-28.214509	63.864319	82.319858	-47.248388	51.574138	158.308523	-238.721711	57.789977	-74.772404	-26.723251	66.292497	-59.942455	-42.856716	52.380590	-135.038211	-73.621331	1389.371414	23.134041	-161.429891	1437.092128	176.420603	-143.237730	1448.857686	-158.904140	-171.098159	94.062999	-74.843504	-177.162003	96.457709	104.157297	-96.310037	920.513352	-69.743083	-113.418775	920.117886	96.836074	-127.707594	533.946766	-75.936665	-137.820318	527.390305	109.729670	
